<svg class="svg-icon" style="width: 1em; height: 1em;vertical-align: middle;fill: currentColor;overflow: hidden;" viewBox="0 0 1024 1024" version="1.1" xmlns="http://www.w3.org/2000/svg"><path d="M602.1 256h-84c-3.3 0-6 2.7-6 6v52c0 3.3 2.7 6 6 6h84c3.3 0 6-2.7 6-6v-52c0-3.3-2.7-6-6-6zM518.1 544.1h180c3.3 0 6-2.7 6-6v-52c0-3.3-2.7-6-6-6h-180c-3.3 0-6 2.7-6 6v52c0 3.3 2.7 6 6 6z"  /><path d="M832.1 197.9c0-3.3-2.7-6-6-6h-58v-64h-58c-3.3 0-6-2.7-6-6v-52c0-3.3-2.7-6-6-6H140c-6.6 0-12 5.4-12 12v872.4c0 6.6 5.4 12 12 12h680.1c6.6 0 12-5.4 12-12V197.9zM192 890.4V133.9c0-3.3 2.7-6 6-6h436.1c3.3 0 6 2.7 6 6v116c0 3.3 2.7 6 6 6h122v634.4c0 3.3-2.7 6-6 6H198c-3.3 0.1-6-2.6-6-5.9z"  /><path d="M262 384.1h180.3c3.3 0 6-2.7 6-6V197.8c0-3.3-2.7-6-6-6H262c-3.3 0-6 2.7-6 6v180.3c0 3.3 2.7 6 6 6z m64-128.3h52.3c3.3 0 6 2.7 6 6v52.3c0 3.3-2.7 6-6 6H326c-3.3 0-6-2.7-6-6v-52.3c0-3.3 2.7-6 6-6zM262 609.3h180.3c3.3 0 6-2.7 6-6V423c0-3.3-2.7-6-6-6H262c-3.3 0-6 2.7-6 6v180.3c0 3.3 2.7 6 6 6zM326 481h52.3c3.3 0 6 2.7 6 6v52.3c0 3.3-2.7 6-6 6H326c-3.3 0-6-2.7-6-6V487c0-3.3 2.7-6 6-6zM261.9 832.2h180.3c3.3 0 6-2.7 6-6V646c0-3.3-2.7-6-6-6H261.9c-3.3 0-6 2.7-6 6v180.3c0 3.3 2.7 5.9 6 5.9z m64-128.2h52.3c3.3 0 6 2.7 6 6v52.3c0 3.3-2.7 6-6 6h-52.3c-3.3 0-6-2.7-6-6V710c0-3.3 2.7-6 6-6zM518.1 767.9h180c3.3 0 6-2.7 6-6v-52c0-3.3-2.7-6-6-6h-180c-3.3 0-6 2.7-6 6v52c0 3.3 2.7 6 6 6z"  /></svg>